<?xml version="1.0" encoding="utf-8" standalone="no"?>
<!DOCTYPE svg PUBLIC "-//W3C//DTD SVG 1.1//EN"
  "http://www.w3.org/Graphics/SVG/1.1/DTD/svg11.dtd">
<svg xmlns:xlink="http://www.w3.org/1999/xlink" width="648pt" height="432pt" viewBox="0 0 648 432" xmlns="http://www.w3.org/2000/svg" version="1.1">
 <metadata>
  <rdf:RDF xmlns:dc="http://purl.org/dc/elements/1.1/" xmlns:cc="http://creativecommons.org/ns#" xmlns:rdf="http://www.w3.org/1999/02/22-rdf-syntax-ns#">
   <cc:Work>
    <dc:type rdf:resource="http://purl.org/dc/dcmitype/StillImage"/>
    <dc:date>2026-06-01T13:21:06.657881</dc:date>
    <dc:format>image/svg+xml</dc:format>
    <dc:creator>
     <cc:Agent>
      <dc:title>Matplotlib v3.8.4, https://matplotlib.org/</dc:title>
     </cc:Agent>
    </dc:creator>
   </cc:Work>
  </rdf:RDF>
 </metadata>
 <defs>
  <style type="text/css">*{stroke-linejoin: round; stroke-linecap: butt}</style>
 </defs>
 <g id="figure_1">
  <g id="patch_1">
   <path d="M 0 432 
L 648 432 
L 648 0 
L 0 0 
z
" style="fill: #ffffff"/>
  </g>
  <g id="axes_1">
   <g id="patch_2">
    <path d="M 57.368 386.44 
L 637.2 386.44 
L 637.2 27.6 
L 57.368 27.6 
z
" style="fill: #ffffff"/>
   </g>
   <g id="matplotlib.axis_1">
    <g id="xtick_1">
     <g id="line2d_1">
      <path d="M 123.825219 386.44 
L 123.825219 27.6 
" clip-path="url(#pdc895ae071)" style="fill: none; stroke-dasharray: 2.96,1.28; stroke-dashoffset: 0; stroke: #b0b0b0; stroke-opacity: 0.7; stroke-width: 0.8"/>
     </g>
     <g id="line2d_2">
      <defs>
       <path id="mc33024e32e" d="M 0 0 
L 0 3.5 
" style="stroke: #000000; stroke-width: 0.8"/>
      </defs>
      <g>
       <use xlink:href="#mc33024e32e" x="123.825219" y="386.44" style="stroke: #000000; stroke-width: 0.8"/>
      </g>
     </g>
     <g id="text_1">
      <!-- −2 -->
      <g transform="translate(116.454126 401.038437) scale(0.1 -0.1)">
       <defs>
        <path id="DejaVuSans-2212" d="M 678 2272 
L 4684 2272 
L 4684 1741 
L 678 1741 
L 678 2272 
z
" transform="scale(0.015625)"/>
        <path id="DejaVuSans-32" d="M 1228 531 
L 3431 531 
L 3431 0 
L 469 0 
L 469 531 
Q 828 903 1448 1529 
Q 2069 2156 2228 2338 
Q 2531 2678 2651 2914 
Q 2772 3150 2772 3378 
Q 2772 3750 2511 3984 
Q 2250 4219 1831 4219 
Q 1534 4219 1204 4116 
Q 875 4013 500 3803 
L 500 4441 
Q 881 4594 1212 4672 
Q 1544 4750 1819 4750 
Q 2544 4750 2975 4387 
Q 3406 4025 3406 3419 
Q 3406 3131 3298 2873 
Q 3191 2616 2906 2266 
Q 2828 2175 2409 1742 
Q 1991 1309 1228 531 
z
" transform="scale(0.015625)"/>
       </defs>
       <use xlink:href="#DejaVuSans-2212"/>
       <use xlink:href="#DejaVuSans-32" x="83.789062"/>
      </g>
     </g>
    </g>
    <g id="xtick_2">
     <g id="line2d_3">
      <path d="M 235.55461 386.44 
L 235.55461 27.6 
" clip-path="url(#pdc895ae071)" style="fill: none; stroke-dasharray: 2.96,1.28; stroke-dashoffset: 0; stroke: #b0b0b0; stroke-opacity: 0.7; stroke-width: 0.8"/>
     </g>
     <g id="line2d_4">
      <g>
       <use xlink:href="#mc33024e32e" x="235.55461" y="386.44" style="stroke: #000000; stroke-width: 0.8"/>
      </g>
     </g>
     <g id="text_2">
      <!-- −1 -->
      <g transform="translate(228.183516 401.038437) scale(0.1 -0.1)">
       <defs>
        <path id="DejaVuSans-31" d="M 794 531 
L 1825 531 
L 1825 4091 
L 703 3866 
L 703 4441 
L 1819 4666 
L 2450 4666 
L 2450 531 
L 3481 531 
L 3481 0 
L 794 0 
L 794 531 
z
" transform="scale(0.015625)"/>
       </defs>
       <use xlink:href="#DejaVuSans-2212"/>
       <use xlink:href="#DejaVuSans-31" x="83.789062"/>
      </g>
     </g>
    </g>
    <g id="xtick_3">
     <g id="line2d_5">
      <path d="M 347.284 386.44 
L 347.284 27.6 
" clip-path="url(#pdc895ae071)" style="fill: none; stroke-dasharray: 2.96,1.28; stroke-dashoffset: 0; stroke: #b0b0b0; stroke-opacity: 0.7; stroke-width: 0.8"/>
     </g>
     <g id="line2d_6">
      <g>
       <use xlink:href="#mc33024e32e" x="347.284" y="386.44" style="stroke: #000000; stroke-width: 0.8"/>
      </g>
     </g>
     <g id="text_3">
      <!-- 0 -->
      <g transform="translate(344.10275 401.038437) scale(0.1 -0.1)">
       <defs>
        <path id="DejaVuSans-30" d="M 2034 4250 
Q 1547 4250 1301 3770 
Q 1056 3291 1056 2328 
Q 1056 1369 1301 889 
Q 1547 409 2034 409 
Q 2525 409 2770 889 
Q 3016 1369 3016 2328 
Q 3016 3291 2770 3770 
Q 2525 4250 2034 4250 
z
M 2034 4750 
Q 2819 4750 3233 4129 
Q 3647 3509 3647 2328 
Q 3647 1150 3233 529 
Q 2819 -91 2034 -91 
Q 1250 -91 836 529 
Q 422 1150 422 2328 
Q 422 3509 836 4129 
Q 1250 4750 2034 4750 
z
" transform="scale(0.015625)"/>
       </defs>
       <use xlink:href="#DejaVuSans-30"/>
      </g>
     </g>
    </g>
    <g id="xtick_4">
     <g id="line2d_7">
      <path d="M 459.01339 386.44 
L 459.01339 27.6 
" clip-path="url(#pdc895ae071)" style="fill: none; stroke-dasharray: 2.96,1.28; stroke-dashoffset: 0; stroke: #b0b0b0; stroke-opacity: 0.7; stroke-width: 0.8"/>
     </g>
     <g id="line2d_8">
      <g>
       <use xlink:href="#mc33024e32e" x="459.01339" y="386.44" style="stroke: #000000; stroke-width: 0.8"/>
      </g>
     </g>
     <g id="text_4">
      <!-- 1 -->
      <g transform="translate(455.83214 401.038437) scale(0.1 -0.1)">
       <use xlink:href="#DejaVuSans-31"/>
      </g>
     </g>
    </g>
    <g id="xtick_5">
     <g id="line2d_9">
      <path d="M 570.742781 386.44 
L 570.742781 27.6 
" clip-path="url(#pdc895ae071)" style="fill: none; stroke-dasharray: 2.96,1.28; stroke-dashoffset: 0; stroke: #b0b0b0; stroke-opacity: 0.7; stroke-width: 0.8"/>
     </g>
     <g id="line2d_10">
      <g>
       <use xlink:href="#mc33024e32e" x="570.742781" y="386.44" style="stroke: #000000; stroke-width: 0.8"/>
      </g>
     </g>
     <g id="text_5">
      <!-- 2 -->
      <g transform="translate(567.561531 401.038437) scale(0.1 -0.1)">
       <use xlink:href="#DejaVuSans-32"/>
      </g>
     </g>
    </g>
    <g id="text_6">
     <!-- Magnetic Field $B$ (mT) -->
     <g transform="translate(281.464 416.238125) scale(0.12 -0.12)">
      <defs>
       <path id="DejaVuSans-4d" d="M 628 4666 
L 1569 4666 
L 2759 1491 
L 3956 4666 
L 4897 4666 
L 4897 0 
L 4281 0 
L 4281 4097 
L 3078 897 
L 2444 897 
L 1241 4097 
L 1241 0 
L 628 0 
L 628 4666 
z
" transform="scale(0.015625)"/>
       <path id="DejaVuSans-61" d="M 2194 1759 
Q 1497 1759 1228 1600 
Q 959 1441 959 1056 
Q 959 750 1161 570 
Q 1363 391 1709 391 
Q 2188 391 2477 730 
Q 2766 1069 2766 1631 
L 2766 1759 
L 2194 1759 
z
M 3341 1997 
L 3341 0 
L 2766 0 
L 2766 531 
Q 2569 213 2275 61 
Q 1981 -91 1556 -91 
Q 1019 -91 701 211 
Q 384 513 384 1019 
Q 384 1609 779 1909 
Q 1175 2209 1959 2209 
L 2766 2209 
L 2766 2266 
Q 2766 2663 2505 2880 
Q 2244 3097 1772 3097 
Q 1472 3097 1187 3025 
Q 903 2953 641 2809 
L 641 3341 
Q 956 3463 1253 3523 
Q 1550 3584 1831 3584 
Q 2591 3584 2966 3190 
Q 3341 2797 3341 1997 
z
" transform="scale(0.015625)"/>
       <path id="DejaVuSans-67" d="M 2906 1791 
Q 2906 2416 2648 2759 
Q 2391 3103 1925 3103 
Q 1463 3103 1205 2759 
Q 947 2416 947 1791 
Q 947 1169 1205 825 
Q 1463 481 1925 481 
Q 2391 481 2648 825 
Q 2906 1169 2906 1791 
z
M 3481 434 
Q 3481 -459 3084 -895 
Q 2688 -1331 1869 -1331 
Q 1566 -1331 1297 -1286 
Q 1028 -1241 775 -1147 
L 775 -588 
Q 1028 -725 1275 -790 
Q 1522 -856 1778 -856 
Q 2344 -856 2625 -561 
Q 2906 -266 2906 331 
L 2906 616 
Q 2728 306 2450 153 
Q 2172 0 1784 0 
Q 1141 0 747 490 
Q 353 981 353 1791 
Q 353 2603 747 3093 
Q 1141 3584 1784 3584 
Q 2172 3584 2450 3431 
Q 2728 3278 2906 2969 
L 2906 3500 
L 3481 3500 
L 3481 434 
z
" transform="scale(0.015625)"/>
       <path id="DejaVuSans-6e" d="M 3513 2113 
L 3513 0 
L 2938 0 
L 2938 2094 
Q 2938 2591 2744 2837 
Q 2550 3084 2163 3084 
Q 1697 3084 1428 2787 
Q 1159 2491 1159 1978 
L 1159 0 
L 581 0 
L 581 3500 
L 1159 3500 
L 1159 2956 
Q 1366 3272 1645 3428 
Q 1925 3584 2291 3584 
Q 2894 3584 3203 3211 
Q 3513 2838 3513 2113 
z
" transform="scale(0.015625)"/>
       <path id="DejaVuSans-65" d="M 3597 1894 
L 3597 1613 
L 953 1613 
Q 991 1019 1311 708 
Q 1631 397 2203 397 
Q 2534 397 2845 478 
Q 3156 559 3463 722 
L 3463 178 
Q 3153 47 2828 -22 
Q 2503 -91 2169 -91 
Q 1331 -91 842 396 
Q 353 884 353 1716 
Q 353 2575 817 3079 
Q 1281 3584 2069 3584 
Q 2775 3584 3186 3129 
Q 3597 2675 3597 1894 
z
M 3022 2063 
Q 3016 2534 2758 2815 
Q 2500 3097 2075 3097 
Q 1594 3097 1305 2825 
Q 1016 2553 972 2059 
L 3022 2063 
z
" transform="scale(0.015625)"/>
       <path id="DejaVuSans-74" d="M 1172 4494 
L 1172 3500 
L 2356 3500 
L 2356 3053 
L 1172 3053 
L 1172 1153 
Q 1172 725 1289 603 
Q 1406 481 1766 481 
L 2356 481 
L 2356 0 
L 1766 0 
Q 1100 0 847 248 
Q 594 497 594 1153 
L 594 3053 
L 172 3053 
L 172 3500 
L 594 3500 
L 594 4494 
L 1172 4494 
z
" transform="scale(0.015625)"/>
       <path id="DejaVuSans-69" d="M 603 3500 
L 1178 3500 
L 1178 0 
L 603 0 
L 603 3500 
z
M 603 4863 
L 1178 4863 
L 1178 4134 
L 603 4134 
L 603 4863 
z
" transform="scale(0.015625)"/>
       <path id="DejaVuSans-63" d="M 3122 3366 
L 3122 2828 
Q 2878 2963 2633 3030 
Q 2388 3097 2138 3097 
Q 1578 3097 1268 2742 
Q 959 2388 959 1747 
Q 959 1106 1268 751 
Q 1578 397 2138 397 
Q 2388 397 2633 464 
Q 2878 531 3122 666 
L 3122 134 
Q 2881 22 2623 -34 
Q 2366 -91 2075 -91 
Q 1284 -91 818 406 
Q 353 903 353 1747 
Q 353 2603 823 3093 
Q 1294 3584 2113 3584 
Q 2378 3584 2631 3529 
Q 2884 3475 3122 3366 
z
" transform="scale(0.015625)"/>
       <path id="DejaVuSans-20" transform="scale(0.015625)"/>
       <path id="DejaVuSans-46" d="M 628 4666 
L 3309 4666 
L 3309 4134 
L 1259 4134 
L 1259 2759 
L 3109 2759 
L 3109 2228 
L 1259 2228 
L 1259 0 
L 628 0 
L 628 4666 
z
" transform="scale(0.015625)"/>
       <path id="DejaVuSans-6c" d="M 603 4863 
L 1178 4863 
L 1178 0 
L 603 0 
L 603 4863 
z
" transform="scale(0.015625)"/>
       <path id="DejaVuSans-64" d="M 2906 2969 
L 2906 4863 
L 3481 4863 
L 3481 0 
L 2906 0 
L 2906 525 
Q 2725 213 2448 61 
Q 2172 -91 1784 -91 
Q 1150 -91 751 415 
Q 353 922 353 1747 
Q 353 2572 751 3078 
Q 1150 3584 1784 3584 
Q 2172 3584 2448 3432 
Q 2725 3281 2906 2969 
z
M 947 1747 
Q 947 1113 1208 752 
Q 1469 391 1925 391 
Q 2381 391 2643 752 
Q 2906 1113 2906 1747 
Q 2906 2381 2643 2742 
Q 2381 3103 1925 3103 
Q 1469 3103 1208 2742 
Q 947 2381 947 1747 
z
" transform="scale(0.015625)"/>
       <path id="DejaVuSans-Oblique-42" d="M 1081 4666 
L 2694 4666 
Q 3350 4666 3675 4422 
Q 4000 4178 4000 3688 
Q 4000 3238 3720 2911 
Q 3441 2584 2988 2516 
Q 3375 2428 3569 2181 
Q 3763 1934 3763 1522 
Q 3763 819 3242 409 
Q 2722 0 1819 0 
L 172 0 
L 1081 4666 
z
M 1234 2228 
L 903 519 
L 1919 519 
Q 2491 519 2800 781 
Q 3109 1044 3109 1522 
Q 3109 1891 2904 2059 
Q 2700 2228 2247 2228 
L 1234 2228 
z
M 1606 4147 
L 1331 2741 
L 2272 2741 
Q 2775 2741 3058 2959 
Q 3341 3178 3341 3566 
Q 3341 3869 3150 4008 
Q 2959 4147 2541 4147 
L 1606 4147 
z
" transform="scale(0.015625)"/>
       <path id="DejaVuSans-28" d="M 1984 4856 
Q 1566 4138 1362 3434 
Q 1159 2731 1159 2009 
Q 1159 1288 1364 580 
Q 1569 -128 1984 -844 
L 1484 -844 
Q 1016 -109 783 600 
Q 550 1309 550 2009 
Q 550 2706 781 3412 
Q 1013 4119 1484 4856 
L 1984 4856 
z
" transform="scale(0.015625)"/>
       <path id="DejaVuSans-6d" d="M 3328 2828 
Q 3544 3216 3844 3400 
Q 4144 3584 4550 3584 
Q 5097 3584 5394 3201 
Q 5691 2819 5691 2113 
L 5691 0 
L 5113 0 
L 5113 2094 
Q 5113 2597 4934 2840 
Q 4756 3084 4391 3084 
Q 3944 3084 3684 2787 
Q 3425 2491 3425 1978 
L 3425 0 
L 2847 0 
L 2847 2094 
Q 2847 2600 2669 2842 
Q 2491 3084 2119 3084 
Q 1678 3084 1418 2786 
Q 1159 2488 1159 1978 
L 1159 0 
L 581 0 
L 581 3500 
L 1159 3500 
L 1159 2956 
Q 1356 3278 1631 3431 
Q 1906 3584 2284 3584 
Q 2666 3584 2933 3390 
Q 3200 3197 3328 2828 
z
" transform="scale(0.015625)"/>
       <path id="DejaVuSans-54" d="M -19 4666 
L 3928 4666 
L 3928 4134 
L 2272 4134 
L 2272 0 
L 1638 0 
L 1638 4134 
L -19 4134 
L -19 4666 
z
" transform="scale(0.015625)"/>
       <path id="DejaVuSans-29" d="M 513 4856 
L 1013 4856 
Q 1481 4119 1714 3412 
Q 1947 2706 1947 2009 
Q 1947 1309 1714 600 
Q 1481 -109 1013 -844 
L 513 -844 
Q 928 -128 1133 580 
Q 1338 1288 1338 2009 
Q 1338 2731 1133 3434 
Q 928 4138 513 4856 
z
" transform="scale(0.015625)"/>
      </defs>
      <use xlink:href="#DejaVuSans-4d" transform="translate(0 0.015625)"/>
      <use xlink:href="#DejaVuSans-61" transform="translate(86.279297 0.015625)"/>
      <use xlink:href="#DejaVuSans-67" transform="translate(147.558594 0.015625)"/>
      <use xlink:href="#DejaVuSans-6e" transform="translate(211.035156 0.015625)"/>
      <use xlink:href="#DejaVuSans-65" transform="translate(274.414062 0.015625)"/>
      <use xlink:href="#DejaVuSans-74" transform="translate(335.9375 0.015625)"/>
      <use xlink:href="#DejaVuSans-69" transform="translate(375.146484 0.015625)"/>
      <use xlink:href="#DejaVuSans-63" transform="translate(402.929688 0.015625)"/>
      <use xlink:href="#DejaVuSans-20" transform="translate(457.910156 0.015625)"/>
      <use xlink:href="#DejaVuSans-46" transform="translate(489.697266 0.015625)"/>
      <use xlink:href="#DejaVuSans-69" transform="translate(547.216797 0.015625)"/>
      <use xlink:href="#DejaVuSans-65" transform="translate(575 0.015625)"/>
      <use xlink:href="#DejaVuSans-6c" transform="translate(636.523438 0.015625)"/>
      <use xlink:href="#DejaVuSans-64" transform="translate(664.306641 0.015625)"/>
      <use xlink:href="#DejaVuSans-20" transform="translate(727.783203 0.015625)"/>
      <use xlink:href="#DejaVuSans-Oblique-42" transform="translate(759.570312 0.015625)"/>
      <use xlink:href="#DejaVuSans-20" transform="translate(828.173828 0.015625)"/>
      <use xlink:href="#DejaVuSans-28" transform="translate(859.960938 0.015625)"/>
      <use xlink:href="#DejaVuSans-6d" transform="translate(898.974609 0.015625)"/>
      <use xlink:href="#DejaVuSans-54" transform="translate(996.386719 0.015625)"/>
      <use xlink:href="#DejaVuSans-29" transform="translate(1057.470703 0.015625)"/>
     </g>
    </g>
   </g>
   <g id="matplotlib.axis_2">
    <g id="ytick_1">
     <g id="line2d_11">
      <path d="M 57.368 370.704904 
L 637.2 370.704904 
" clip-path="url(#pdc895ae071)" style="fill: none; stroke-dasharray: 2.96,1.28; stroke-dashoffset: 0; stroke: #b0b0b0; stroke-opacity: 0.7; stroke-width: 0.8"/>
     </g>
     <g id="line2d_12">
      <defs>
       <path id="m7d132bdbe8" d="M 0 0 
L -3.5 0 
" style="stroke: #000000; stroke-width: 0.8"/>
      </defs>
      <g>
       <use xlink:href="#m7d132bdbe8" x="57.368" y="370.704904" style="stroke: #000000; stroke-width: 0.8"/>
      </g>
     </g>
     <g id="text_7">
      <!-- 0.00 -->
      <g transform="translate(28.102375 374.504122) scale(0.1 -0.1)">
       <defs>
        <path id="DejaVuSans-2e" d="M 684 794 
L 1344 794 
L 1344 0 
L 684 0 
L 684 794 
z
" transform="scale(0.015625)"/>
       </defs>
       <use xlink:href="#DejaVuSans-30"/>
       <use xlink:href="#DejaVuSans-2e" x="63.623047"/>
       <use xlink:href="#DejaVuSans-30" x="95.410156"/>
       <use xlink:href="#DejaVuSans-30" x="159.033203"/>
      </g>
     </g>
    </g>
    <g id="ytick_2">
     <g id="line2d_13">
      <path d="M 57.368 326.295844 
L 637.2 326.295844 
" clip-path="url(#pdc895ae071)" style="fill: none; stroke-dasharray: 2.96,1.28; stroke-dashoffset: 0; stroke: #b0b0b0; stroke-opacity: 0.7; stroke-width: 0.8"/>
     </g>
     <g id="line2d_14">
      <g>
       <use xlink:href="#m7d132bdbe8" x="57.368" y="326.295844" style="stroke: #000000; stroke-width: 0.8"/>
      </g>
     </g>
     <g id="text_8">
      <!-- 0.01 -->
      <g transform="translate(28.102375 330.095062) scale(0.1 -0.1)">
       <use xlink:href="#DejaVuSans-30"/>
       <use xlink:href="#DejaVuSans-2e" x="63.623047"/>
       <use xlink:href="#DejaVuSans-30" x="95.410156"/>
       <use xlink:href="#DejaVuSans-31" x="159.033203"/>
      </g>
     </g>
    </g>
    <g id="ytick_3">
     <g id="line2d_15">
      <path d="M 57.368 281.886784 
L 637.2 281.886784 
" clip-path="url(#pdc895ae071)" style="fill: none; stroke-dasharray: 2.96,1.28; stroke-dashoffset: 0; stroke: #b0b0b0; stroke-opacity: 0.7; stroke-width: 0.8"/>
     </g>
     <g id="line2d_16">
      <g>
       <use xlink:href="#m7d132bdbe8" x="57.368" y="281.886784" style="stroke: #000000; stroke-width: 0.8"/>
      </g>
     </g>
     <g id="text_9">
      <!-- 0.02 -->
      <g transform="translate(28.102375 285.686002) scale(0.1 -0.1)">
       <use xlink:href="#DejaVuSans-30"/>
       <use xlink:href="#DejaVuSans-2e" x="63.623047"/>
       <use xlink:href="#DejaVuSans-30" x="95.410156"/>
       <use xlink:href="#DejaVuSans-32" x="159.033203"/>
      </g>
     </g>
    </g>
    <g id="ytick_4">
     <g id="line2d_17">
      <path d="M 57.368 237.477723 
L 637.2 237.477723 
" clip-path="url(#pdc895ae071)" style="fill: none; stroke-dasharray: 2.96,1.28; stroke-dashoffset: 0; stroke: #b0b0b0; stroke-opacity: 0.7; stroke-width: 0.8"/>
     </g>
     <g id="line2d_18">
      <g>
       <use xlink:href="#m7d132bdbe8" x="57.368" y="237.477723" style="stroke: #000000; stroke-width: 0.8"/>
      </g>
     </g>
     <g id="text_10">
      <!-- 0.03 -->
      <g transform="translate(28.102375 241.276942) scale(0.1 -0.1)">
       <defs>
        <path id="DejaVuSans-33" d="M 2597 2516 
Q 3050 2419 3304 2112 
Q 3559 1806 3559 1356 
Q 3559 666 3084 287 
Q 2609 -91 1734 -91 
Q 1441 -91 1130 -33 
Q 819 25 488 141 
L 488 750 
Q 750 597 1062 519 
Q 1375 441 1716 441 
Q 2309 441 2620 675 
Q 2931 909 2931 1356 
Q 2931 1769 2642 2001 
Q 2353 2234 1838 2234 
L 1294 2234 
L 1294 2753 
L 1863 2753 
Q 2328 2753 2575 2939 
Q 2822 3125 2822 3475 
Q 2822 3834 2567 4026 
Q 2313 4219 1838 4219 
Q 1578 4219 1281 4162 
Q 984 4106 628 3988 
L 628 4550 
Q 988 4650 1302 4700 
Q 1616 4750 1894 4750 
Q 2613 4750 3031 4423 
Q 3450 4097 3450 3541 
Q 3450 3153 3228 2886 
Q 3006 2619 2597 2516 
z
" transform="scale(0.015625)"/>
       </defs>
       <use xlink:href="#DejaVuSans-30"/>
       <use xlink:href="#DejaVuSans-2e" x="63.623047"/>
       <use xlink:href="#DejaVuSans-30" x="95.410156"/>
       <use xlink:href="#DejaVuSans-33" x="159.033203"/>
      </g>
     </g>
    </g>
    <g id="ytick_5">
     <g id="line2d_19">
      <path d="M 57.368 193.068663 
L 637.2 193.068663 
" clip-path="url(#pdc895ae071)" style="fill: none; stroke-dasharray: 2.96,1.28; stroke-dashoffset: 0; stroke: #b0b0b0; stroke-opacity: 0.7; stroke-width: 0.8"/>
     </g>
     <g id="line2d_20">
      <g>
       <use xlink:href="#m7d132bdbe8" x="57.368" y="193.068663" style="stroke: #000000; stroke-width: 0.8"/>
      </g>
     </g>
     <g id="text_11">
      <!-- 0.04 -->
      <g transform="translate(28.102375 196.867882) scale(0.1 -0.1)">
       <defs>
        <path id="DejaVuSans-34" d="M 2419 4116 
L 825 1625 
L 2419 1625 
L 2419 4116 
z
M 2253 4666 
L 3047 4666 
L 3047 1625 
L 3713 1625 
L 3713 1100 
L 3047 1100 
L 3047 0 
L 2419 0 
L 2419 1100 
L 313 1100 
L 313 1709 
L 2253 4666 
z
" transform="scale(0.015625)"/>
       </defs>
       <use xlink:href="#DejaVuSans-30"/>
       <use xlink:href="#DejaVuSans-2e" x="63.623047"/>
       <use xlink:href="#DejaVuSans-30" x="95.410156"/>
       <use xlink:href="#DejaVuSans-34" x="159.033203"/>
      </g>
     </g>
    </g>
    <g id="ytick_6">
     <g id="line2d_21">
      <path d="M 57.368 148.659603 
L 637.2 148.659603 
" clip-path="url(#pdc895ae071)" style="fill: none; stroke-dasharray: 2.96,1.28; stroke-dashoffset: 0; stroke: #b0b0b0; stroke-opacity: 0.7; stroke-width: 0.8"/>
     </g>
     <g id="line2d_22">
      <g>
       <use xlink:href="#m7d132bdbe8" x="57.368" y="148.659603" style="stroke: #000000; stroke-width: 0.8"/>
      </g>
     </g>
     <g id="text_12">
      <!-- 0.05 -->
      <g transform="translate(28.102375 152.458822) scale(0.1 -0.1)">
       <defs>
        <path id="DejaVuSans-35" d="M 691 4666 
L 3169 4666 
L 3169 4134 
L 1269 4134 
L 1269 2991 
Q 1406 3038 1543 3061 
Q 1681 3084 1819 3084 
Q 2600 3084 3056 2656 
Q 3513 2228 3513 1497 
Q 3513 744 3044 326 
Q 2575 -91 1722 -91 
Q 1428 -91 1123 -41 
Q 819 9 494 109 
L 494 744 
Q 775 591 1075 516 
Q 1375 441 1709 441 
Q 2250 441 2565 725 
Q 2881 1009 2881 1497 
Q 2881 1984 2565 2268 
Q 2250 2553 1709 2553 
Q 1456 2553 1204 2497 
Q 953 2441 691 2322 
L 691 4666 
z
" transform="scale(0.015625)"/>
       </defs>
       <use xlink:href="#DejaVuSans-30"/>
       <use xlink:href="#DejaVuSans-2e" x="63.623047"/>
       <use xlink:href="#DejaVuSans-30" x="95.410156"/>
       <use xlink:href="#DejaVuSans-35" x="159.033203"/>
      </g>
     </g>
    </g>
    <g id="ytick_7">
     <g id="line2d_23">
      <path d="M 57.368 104.250543 
L 637.2 104.250543 
" clip-path="url(#pdc895ae071)" style="fill: none; stroke-dasharray: 2.96,1.28; stroke-dashoffset: 0; stroke: #b0b0b0; stroke-opacity: 0.7; stroke-width: 0.8"/>
     </g>
     <g id="line2d_24">
      <g>
       <use xlink:href="#m7d132bdbe8" x="57.368" y="104.250543" style="stroke: #000000; stroke-width: 0.8"/>
      </g>
     </g>
     <g id="text_13">
      <!-- 0.06 -->
      <g transform="translate(28.102375 108.049762) scale(0.1 -0.1)">
       <defs>
        <path id="DejaVuSans-36" d="M 2113 2584 
Q 1688 2584 1439 2293 
Q 1191 2003 1191 1497 
Q 1191 994 1439 701 
Q 1688 409 2113 409 
Q 2538 409 2786 701 
Q 3034 994 3034 1497 
Q 3034 2003 2786 2293 
Q 2538 2584 2113 2584 
z
M 3366 4563 
L 3366 3988 
Q 3128 4100 2886 4159 
Q 2644 4219 2406 4219 
Q 1781 4219 1451 3797 
Q 1122 3375 1075 2522 
Q 1259 2794 1537 2939 
Q 1816 3084 2150 3084 
Q 2853 3084 3261 2657 
Q 3669 2231 3669 1497 
Q 3669 778 3244 343 
Q 2819 -91 2113 -91 
Q 1303 -91 875 529 
Q 447 1150 447 2328 
Q 447 3434 972 4092 
Q 1497 4750 2381 4750 
Q 2619 4750 2861 4703 
Q 3103 4656 3366 4563 
z
" transform="scale(0.015625)"/>
       </defs>
       <use xlink:href="#DejaVuSans-30"/>
       <use xlink:href="#DejaVuSans-2e" x="63.623047"/>
       <use xlink:href="#DejaVuSans-30" x="95.410156"/>
       <use xlink:href="#DejaVuSans-36" x="159.033203"/>
      </g>
     </g>
    </g>
    <g id="ytick_8">
     <g id="line2d_25">
      <path d="M 57.368 59.841483 
L 637.2 59.841483 
" clip-path="url(#pdc895ae071)" style="fill: none; stroke-dasharray: 2.96,1.28; stroke-dashoffset: 0; stroke: #b0b0b0; stroke-opacity: 0.7; stroke-width: 0.8"/>
     </g>
     <g id="line2d_26">
      <g>
       <use xlink:href="#m7d132bdbe8" x="57.368" y="59.841483" style="stroke: #000000; stroke-width: 0.8"/>
      </g>
     </g>
     <g id="text_14">
      <!-- 0.07 -->
      <g transform="translate(28.102375 63.640702) scale(0.1 -0.1)">
       <defs>
        <path id="DejaVuSans-37" d="M 525 4666 
L 3525 4666 
L 3525 4397 
L 1831 0 
L 1172 0 
L 2766 4134 
L 525 4134 
L 525 4666 
z
" transform="scale(0.015625)"/>
       </defs>
       <use xlink:href="#DejaVuSans-30"/>
       <use xlink:href="#DejaVuSans-2e" x="63.623047"/>
       <use xlink:href="#DejaVuSans-30" x="95.410156"/>
       <use xlink:href="#DejaVuSans-37" x="159.033203"/>
      </g>
     </g>
    </g>
    <g id="text_15">
     <!-- Critical Current $I_c$ (mA) -->
     <g transform="translate(21.60675 275.42) rotate(-90) scale(0.12 -0.12)">
      <defs>
       <path id="DejaVuSans-43" d="M 4122 4306 
L 4122 3641 
Q 3803 3938 3442 4084 
Q 3081 4231 2675 4231 
Q 1875 4231 1450 3742 
Q 1025 3253 1025 2328 
Q 1025 1406 1450 917 
Q 1875 428 2675 428 
Q 3081 428 3442 575 
Q 3803 722 4122 1019 
L 4122 359 
Q 3791 134 3420 21 
Q 3050 -91 2638 -91 
Q 1578 -91 968 557 
Q 359 1206 359 2328 
Q 359 3453 968 4101 
Q 1578 4750 2638 4750 
Q 3056 4750 3426 4639 
Q 3797 4528 4122 4306 
z
" transform="scale(0.015625)"/>
       <path id="DejaVuSans-72" d="M 2631 2963 
Q 2534 3019 2420 3045 
Q 2306 3072 2169 3072 
Q 1681 3072 1420 2755 
Q 1159 2438 1159 1844 
L 1159 0 
L 581 0 
L 581 3500 
L 1159 3500 
L 1159 2956 
Q 1341 3275 1631 3429 
Q 1922 3584 2338 3584 
Q 2397 3584 2469 3576 
Q 2541 3569 2628 3553 
L 2631 2963 
z
" transform="scale(0.015625)"/>
       <path id="DejaVuSans-75" d="M 544 1381 
L 544 3500 
L 1119 3500 
L 1119 1403 
Q 1119 906 1312 657 
Q 1506 409 1894 409 
Q 2359 409 2629 706 
Q 2900 1003 2900 1516 
L 2900 3500 
L 3475 3500 
L 3475 0 
L 2900 0 
L 2900 538 
Q 2691 219 2414 64 
Q 2138 -91 1772 -91 
Q 1169 -91 856 284 
Q 544 659 544 1381 
z
M 1991 3584 
L 1991 3584 
z
" transform="scale(0.015625)"/>
       <path id="DejaVuSans-Oblique-49" d="M 1081 4666 
L 1716 4666 
L 806 0 
L 172 0 
L 1081 4666 
z
" transform="scale(0.015625)"/>
       <path id="DejaVuSans-Oblique-63" d="M 3431 3366 
L 3316 2797 
Q 3109 2947 2876 3022 
Q 2644 3097 2394 3097 
Q 2119 3097 1870 3000 
Q 1622 2903 1453 2725 
Q 1184 2453 1037 2087 
Q 891 1722 891 1331 
Q 891 859 1127 628 
Q 1363 397 1844 397 
Q 2081 397 2348 469 
Q 2616 541 2906 684 
L 2797 116 
Q 2547 13 2283 -39 
Q 2019 -91 1741 -91 
Q 1044 -91 669 257 
Q 294 606 294 1253 
Q 294 1797 489 2255 
Q 684 2713 1069 3078 
Q 1331 3328 1684 3456 
Q 2038 3584 2456 3584 
Q 2700 3584 2940 3529 
Q 3181 3475 3431 3366 
z
" transform="scale(0.015625)"/>
       <path id="DejaVuSans-41" d="M 2188 4044 
L 1331 1722 
L 3047 1722 
L 2188 4044 
z
M 1831 4666 
L 2547 4666 
L 4325 0 
L 3669 0 
L 3244 1197 
L 1141 1197 
L 716 0 
L 50 0 
L 1831 4666 
z
" transform="scale(0.015625)"/>
      </defs>
      <use xlink:href="#DejaVuSans-43" transform="translate(0 0.015625)"/>
      <use xlink:href="#DejaVuSans-72" transform="translate(69.824219 0.015625)"/>
      <use xlink:href="#DejaVuSans-69" transform="translate(110.9375 0.015625)"/>
      <use xlink:href="#DejaVuSans-74" transform="translate(138.720703 0.015625)"/>
      <use xlink:href="#DejaVuSans-69" transform="translate(177.929688 0.015625)"/>
      <use xlink:href="#DejaVuSans-63" transform="translate(205.712891 0.015625)"/>
      <use xlink:href="#DejaVuSans-61" transform="translate(260.693359 0.015625)"/>
      <use xlink:href="#DejaVuSans-6c" transform="translate(321.972656 0.015625)"/>
      <use xlink:href="#DejaVuSans-20" transform="translate(349.755859 0.015625)"/>
      <use xlink:href="#DejaVuSans-43" transform="translate(381.542969 0.015625)"/>
      <use xlink:href="#DejaVuSans-75" transform="translate(451.367188 0.015625)"/>
      <use xlink:href="#DejaVuSans-72" transform="translate(514.746094 0.015625)"/>
      <use xlink:href="#DejaVuSans-72" transform="translate(555.859375 0.015625)"/>
      <use xlink:href="#DejaVuSans-65" transform="translate(596.972656 0.015625)"/>
      <use xlink:href="#DejaVuSans-6e" transform="translate(658.496094 0.015625)"/>
      <use xlink:href="#DejaVuSans-74" transform="translate(721.875 0.015625)"/>
      <use xlink:href="#DejaVuSans-20" transform="translate(761.083984 0.015625)"/>
      <use xlink:href="#DejaVuSans-Oblique-49" transform="translate(792.871094 0.015625)"/>
      <use xlink:href="#DejaVuSans-Oblique-63" transform="translate(822.363281 -16.390625) scale(0.7)"/>
      <use xlink:href="#DejaVuSans-20" transform="translate(863.583984 0.015625)"/>
      <use xlink:href="#DejaVuSans-28" transform="translate(895.371094 0.015625)"/>
      <use xlink:href="#DejaVuSans-6d" transform="translate(934.384766 0.015625)"/>
      <use xlink:href="#DejaVuSans-41" transform="translate(1031.796875 0.015625)"/>
      <use xlink:href="#DejaVuSans-29" transform="translate(1100.205078 0.015625)"/>
     </g>
    </g>
   </g>
   <g id="line2d_27">
    <path d="M 83.724 368.586962 
L 91.118469 359.169261 
L 110.132818 334.717805 
L 115.414581 328.342324 
L 120.696345 322.348553 
L 124.921756 317.900783 
L 129.147166 313.820574 
L 132.316224 311.033624 
L 135.485283 308.505121 
L 138.654341 306.25623 
L 141.823399 304.30738 
L 144.992457 302.678161 
L 148.161515 301.387231 
L 150.27422 300.723299 
L 152.386926 300.222523 
L 154.499631 299.889619 
L 156.612337 299.729059 
L 158.725042 299.745059 
L 160.837747 299.941568 
L 162.950453 300.32226 
L 165.063158 300.890525 
L 167.175864 301.649455 
L 169.288569 302.601841 
L 171.401275 303.750163 
L 173.51398 305.096581 
L 175.626685 306.642929 
L 177.739391 308.390711 
L 179.852096 310.341092 
L 183.021154 313.648238 
L 186.190212 317.414301 
L 189.359271 321.638798 
L 192.528329 326.319434 
L 195.697387 331.452096 
L 198.866445 337.030839 
L 202.035503 343.047896 
L 205.204561 349.493681 
L 208.373619 356.356808 
L 212.59903 366.13385 
L 213.655383 368.686254 
L 214.711735 370.129091 
L 218.937146 359.343669 
L 223.162557 347.939776 
L 227.387968 335.966282 
L 232.669731 320.280449 
L 237.951495 303.902818 
L 244.289611 283.51139 
L 252.740433 255.450168 
L 274.92384 181.17245 
L 281.261956 160.928128 
L 286.543719 144.743849 
L 291.825483 129.338129 
L 296.050894 117.667925 
L 300.276305 106.653262 
L 304.501715 96.358669 
L 307.670774 89.146889 
L 310.839832 82.398309 
L 314.00889 76.135433 
L 317.177948 70.379203 
L 320.347006 65.148911 
L 323.516064 60.462127 
L 325.62877 57.647416 
L 327.741475 55.085529 
L 329.85418 52.780306 
L 331.966886 50.735208 
L 334.079591 48.953305 
L 336.192297 47.437278 
L 338.305002 46.189405 
L 340.417707 45.211564 
L 342.530413 44.505227 
L 344.643118 44.071457 
L 346.755824 43.910909 
L 348.868529 44.023823 
L 350.981234 44.41003 
L 353.09394 45.068948 
L 355.206645 45.999585 
L 357.319351 47.200539 
L 359.432056 48.670005 
L 361.544762 50.40577 
L 363.657467 52.405227 
L 365.770172 54.665372 
L 367.882878 57.182811 
L 369.995583 59.95377 
L 373.164641 64.576375 
L 376.333699 69.744411 
L 379.502758 75.440517 
L 382.671816 81.645595 
L 385.840874 88.338892 
L 389.009932 95.49808 
L 392.17899 103.099345 
L 396.404401 113.878293 
L 400.629812 125.334945 
L 404.855222 137.402419 
L 410.136986 153.238767 
L 415.418749 169.777384 
L 421.756866 190.342856 
L 430.207687 218.55469 
L 449.222036 282.30691 
L 455.560152 302.738907 
L 460.841916 319.160235 
L 466.123679 334.898093 
L 471.405443 349.8376 
L 475.630854 361.14395 
L 478.799912 369.215365 
L 479.856265 369.585474 
L 484.081675 359.574114 
L 488.307086 350.269579 
L 491.476144 343.774706 
L 494.645202 337.70733 
L 497.814261 332.077247 
L 500.983319 326.892438 
L 504.152377 322.159057 
L 507.321435 317.881432 
L 510.490493 314.062067 
L 513.659551 310.701656 
L 516.828609 307.7991 
L 518.941315 306.117088 
L 521.05402 304.636056 
L 523.166725 303.354393 
L 525.279431 302.270158 
L 527.392136 301.381086 
L 529.504842 300.684594 
L 531.617547 300.177793 
L 533.730253 299.857492 
L 535.842958 299.720208 
L 537.955663 299.762176 
L 540.068369 299.97936 
L 542.181074 300.367458 
L 544.29378 300.921918 
L 546.406485 301.637948 
L 549.575543 303.003887 
L 552.744601 304.704147 
L 555.913659 306.71986 
L 559.082717 309.031244 
L 562.251776 311.617703 
L 565.420834 314.457925 
L 569.646244 318.601665 
L 573.871655 323.104191 
L 578.097066 327.911031 
L 583.37883 334.263422 
L 589.716946 342.247732 
L 610.844 369.444358 
L 610.844 369.444358 
" clip-path="url(#pdc895ae071)" style="fill: none; stroke: #0000ff; stroke-width: 2; stroke-linecap: square"/>
   </g>
   <g id="patch_3">
    <path d="M 57.368 386.44 
L 57.368 27.6 
" style="fill: none; stroke: #000000; stroke-width: 0.8; stroke-linejoin: miter; stroke-linecap: square"/>
   </g>
   <g id="patch_4">
    <path d="M 637.2 386.44 
L 637.2 27.6 
" style="fill: none; stroke: #000000; stroke-width: 0.8; stroke-linejoin: miter; stroke-linecap: square"/>
   </g>
   <g id="patch_5">
    <path d="M 57.368 386.44 
L 637.2 386.44 
" style="fill: none; stroke: #000000; stroke-width: 0.8; stroke-linejoin: miter; stroke-linecap: square"/>
   </g>
   <g id="patch_6">
    <path d="M 57.368 27.6 
L 637.2 27.6 
" style="fill: none; stroke: #000000; stroke-width: 0.8; stroke-linejoin: miter; stroke-linecap: square"/>
   </g>
   <g id="PathCollection_1">
    <defs>
     <path id="me18490c7c8" d="M 0 3.162278 
C 0.838646 3.162278 1.643056 2.82908 2.236068 2.236068 
C 2.82908 1.643056 3.162278 0.838646 3.162278 0 
C 3.162278 -0.838646 2.82908 -1.643056 2.236068 -2.236068 
C 1.643056 -2.82908 0.838646 -3.162278 0 -3.162278 
C -0.838646 -3.162278 -1.643056 -2.82908 -2.236068 -2.236068 
C -2.82908 -1.643056 -3.162278 -0.838646 -3.162278 0 
C -3.162278 0.838646 -2.82908 1.643056 -2.236068 2.236068 
C -1.643056 2.82908 -0.838646 3.162278 0 3.162278 
z
" style="stroke: #ff0000"/>
    </defs>
    <g clip-path="url(#pdc895ae071)">
     <use xlink:href="#me18490c7c8" x="83.724" y="326.295844" style="fill: #ff0000; stroke: #ff0000"/>
     <use xlink:href="#me18490c7c8" x="105.996676" y="321.854938" style="fill: #ff0000; stroke: #ff0000"/>
     <use xlink:href="#me18490c7c8" x="117.133014" y="304.091314" style="fill: #ff0000; stroke: #ff0000"/>
     <use xlink:href="#me18490c7c8" x="128.269352" y="290.768596" style="fill: #ff0000; stroke: #ff0000"/>
     <use xlink:href="#me18490c7c8" x="139.40569" y="277.445878" style="fill: #ff0000; stroke: #ff0000"/>
     <use xlink:href="#me18490c7c8" x="154.254141" y="264.12316" style="fill: #ff0000; stroke: #ff0000"/>
     <use xlink:href="#me18490c7c8" x="161.678366" y="259.682253" style="fill: #ff0000; stroke: #ff0000"/>
     <use xlink:href="#me18490c7c8" x="176.526817" y="259.682253" style="fill: #ff0000; stroke: #ff0000"/>
     <use xlink:href="#me18490c7c8" x="187.663155" y="268.564066" style="fill: #ff0000; stroke: #ff0000"/>
     <use xlink:href="#me18490c7c8" x="195.08738" y="273.004972" style="fill: #ff0000; stroke: #ff0000"/>
     <use xlink:href="#me18490c7c8" x="206.223718" y="295.209502" style="fill: #ff0000; stroke: #ff0000"/>
     <use xlink:href="#me18490c7c8" x="217.360056" y="308.53222" style="fill: #ff0000; stroke: #ff0000"/>
     <use xlink:href="#me18490c7c8" x="228.496394" y="330.73675" style="fill: #ff0000; stroke: #ff0000"/>
     <use xlink:href="#me18490c7c8" x="239.632732" y="304.091314" style="fill: #ff0000; stroke: #ff0000"/>
     <use xlink:href="#me18490c7c8" x="250.76907" y="259.682253" style="fill: #ff0000; stroke: #ff0000"/>
     <use xlink:href="#me18490c7c8" x="261.905408" y="224.155005" style="fill: #ff0000; stroke: #ff0000"/>
     <use xlink:href="#me18490c7c8" x="273.041746" y="197.509569" style="fill: #ff0000; stroke: #ff0000"/>
     <use xlink:href="#me18490c7c8" x="284.178085" y="157.541415" style="fill: #ff0000; stroke: #ff0000"/>
     <use xlink:href="#me18490c7c8" x="302.738648" y="108.691449" style="fill: #ff0000; stroke: #ff0000"/>
     <use xlink:href="#me18490c7c8" x="328.723437" y="73.164201" style="fill: #ff0000; stroke: #ff0000"/>
     <use xlink:href="#me18490c7c8" x="347.284" y="64.282389" style="fill: #ff0000; stroke: #ff0000"/>
     <use xlink:href="#me18490c7c8" x="347.284" y="73.164201" style="fill: #ff0000; stroke: #ff0000"/>
     <use xlink:href="#me18490c7c8" x="365.844563" y="64.282389" style="fill: #ff0000; stroke: #ff0000"/>
     <use xlink:href="#me18490c7c8" x="384.405127" y="95.368731" style="fill: #ff0000; stroke: #ff0000"/>
     <use xlink:href="#me18490c7c8" x="391.829352" y="113.132355" style="fill: #ff0000; stroke: #ff0000"/>
     <use xlink:href="#me18490c7c8" x="410.389915" y="161.982321" style="fill: #ff0000; stroke: #ff0000"/>
     <use xlink:href="#me18490c7c8" x="421.526254" y="193.068663" style="fill: #ff0000; stroke: #ff0000"/>
     <use xlink:href="#me18490c7c8" x="432.662592" y="228.595911" style="fill: #ff0000; stroke: #ff0000"/>
     <use xlink:href="#me18490c7c8" x="443.79893" y="268.564066" style="fill: #ff0000; stroke: #ff0000"/>
     <use xlink:href="#me18490c7c8" x="454.935268" y="304.091314" style="fill: #ff0000; stroke: #ff0000"/>
     <use xlink:href="#me18490c7c8" x="466.071606" y="326.295844" style="fill: #ff0000; stroke: #ff0000"/>
     <use xlink:href="#me18490c7c8" x="477.207944" y="317.414032" style="fill: #ff0000; stroke: #ff0000"/>
     <use xlink:href="#me18490c7c8" x="488.344282" y="290.768596" style="fill: #ff0000; stroke: #ff0000"/>
     <use xlink:href="#me18490c7c8" x="499.48062" y="273.004972" style="fill: #ff0000; stroke: #ff0000"/>
     <use xlink:href="#me18490c7c8" x="506.904845" y="268.564066" style="fill: #ff0000; stroke: #ff0000"/>
     <use xlink:href="#me18490c7c8" x="518.041183" y="259.682253" style="fill: #ff0000; stroke: #ff0000"/>
     <use xlink:href="#me18490c7c8" x="532.889634" y="259.682253" style="fill: #ff0000; stroke: #ff0000"/>
     <use xlink:href="#me18490c7c8" x="540.313859" y="264.12316" style="fill: #ff0000; stroke: #ff0000"/>
     <use xlink:href="#me18490c7c8" x="555.16231" y="277.445878" style="fill: #ff0000; stroke: #ff0000"/>
     <use xlink:href="#me18490c7c8" x="566.298648" y="290.768596" style="fill: #ff0000; stroke: #ff0000"/>
     <use xlink:href="#me18490c7c8" x="577.434986" y="304.091314" style="fill: #ff0000; stroke: #ff0000"/>
     <use xlink:href="#me18490c7c8" x="588.571324" y="317.414032" style="fill: #ff0000; stroke: #ff0000"/>
     <use xlink:href="#me18490c7c8" x="610.844" y="317.414032" style="fill: #ff0000; stroke: #ff0000"/>
    </g>
   </g>
   <g id="text_16">
    <g id="patch_7">
     <path d="M 505.7984 96.440719 
L 608.2084 96.440719 
Q 611.5084 96.440719 611.5084 93.140719 
L 611.5084 45.542 
Q 611.5084 42.242 608.2084 42.242 
L 505.7984 42.242 
Q 502.4984 42.242 502.4984 45.542 
L 502.4984 93.140719 
Q 502.4984 96.440719 505.7984 96.440719 
z
" style="fill: #ffffff; opacity: 0.9; stroke: #000000; stroke-linejoin: miter"/>
    </g>
    <!-- Fit Results: -->
    <g transform="translate(548.392462 53.900281) scale(0.11 -0.11)">
     <defs>
      <path id="DejaVuSans-52" d="M 2841 2188 
Q 3044 2119 3236 1894 
Q 3428 1669 3622 1275 
L 4263 0 
L 3584 0 
L 2988 1197 
Q 2756 1666 2539 1819 
Q 2322 1972 1947 1972 
L 1259 1972 
L 1259 0 
L 628 0 
L 628 4666 
L 2053 4666 
Q 2853 4666 3247 4331 
Q 3641 3997 3641 3322 
Q 3641 2881 3436 2590 
Q 3231 2300 2841 2188 
z
M 1259 4147 
L 1259 2491 
L 2053 2491 
Q 2509 2491 2742 2702 
Q 2975 2913 2975 3322 
Q 2975 3731 2742 3939 
Q 2509 4147 2053 4147 
L 1259 4147 
z
" transform="scale(0.015625)"/>
      <path id="DejaVuSans-73" d="M 2834 3397 
L 2834 2853 
Q 2591 2978 2328 3040 
Q 2066 3103 1784 3103 
Q 1356 3103 1142 2972 
Q 928 2841 928 2578 
Q 928 2378 1081 2264 
Q 1234 2150 1697 2047 
L 1894 2003 
Q 2506 1872 2764 1633 
Q 3022 1394 3022 966 
Q 3022 478 2636 193 
Q 2250 -91 1575 -91 
Q 1294 -91 989 -36 
Q 684 19 347 128 
L 347 722 
Q 666 556 975 473 
Q 1284 391 1588 391 
Q 1994 391 2212 530 
Q 2431 669 2431 922 
Q 2431 1156 2273 1281 
Q 2116 1406 1581 1522 
L 1381 1569 
Q 847 1681 609 1914 
Q 372 2147 372 2553 
Q 372 3047 722 3315 
Q 1072 3584 1716 3584 
Q 2034 3584 2315 3537 
Q 2597 3491 2834 3397 
z
" transform="scale(0.015625)"/>
      <path id="DejaVuSans-3a" d="M 750 794 
L 1409 794 
L 1409 0 
L 750 0 
L 750 794 
z
M 750 3309 
L 1409 3309 
L 1409 2516 
L 750 2516 
L 750 3309 
z
" transform="scale(0.015625)"/>
     </defs>
     <use xlink:href="#DejaVuSans-46"/>
     <use xlink:href="#DejaVuSans-69" x="50.269531"/>
     <use xlink:href="#DejaVuSans-74" x="78.052734"/>
     <use xlink:href="#DejaVuSans-20" x="117.261719"/>
     <use xlink:href="#DejaVuSans-52" x="149.048828"/>
     <use xlink:href="#DejaVuSans-65" x="214.03125"/>
     <use xlink:href="#DejaVuSans-73" x="275.554688"/>
     <use xlink:href="#DejaVuSans-75" x="327.654297"/>
     <use xlink:href="#DejaVuSans-6c" x="391.033203"/>
     <use xlink:href="#DejaVuSans-74" x="418.816406"/>
     <use xlink:href="#DejaVuSans-73" x="458.025391"/>
     <use xlink:href="#DejaVuSans-3a" x="510.125"/>
    </g>
    <!-- $I_0$ = 0.074 mA -->
    <g transform="translate(530.2184 66.217875) scale(0.11 -0.11)">
     <defs>
      <path id="DejaVuSans-3d" d="M 678 2906 
L 4684 2906 
L 4684 2381 
L 678 2381 
L 678 2906 
z
M 678 1631 
L 4684 1631 
L 4684 1100 
L 678 1100 
L 678 1631 
z
" transform="scale(0.015625)"/>
     </defs>
     <use xlink:href="#DejaVuSans-Oblique-49" transform="translate(0 0.78125)"/>
     <use xlink:href="#DejaVuSans-30" transform="translate(29.492188 -15.625) scale(0.7)"/>
     <use xlink:href="#DejaVuSans-20" transform="translate(76.762695 0.78125)"/>
     <use xlink:href="#DejaVuSans-3d" transform="translate(108.549805 0.78125)"/>
     <use xlink:href="#DejaVuSans-20" transform="translate(192.338867 0.78125)"/>
     <use xlink:href="#DejaVuSans-30" transform="translate(224.125977 0.78125)"/>
     <use xlink:href="#DejaVuSans-2e" transform="translate(287.749023 0.78125)"/>
     <use xlink:href="#DejaVuSans-30" transform="translate(319.536133 0.78125)"/>
     <use xlink:href="#DejaVuSans-37" transform="translate(383.15918 0.78125)"/>
     <use xlink:href="#DejaVuSans-34" transform="translate(446.782227 0.78125)"/>
     <use xlink:href="#DejaVuSans-20" transform="translate(510.405273 0.78125)"/>
     <use xlink:href="#DejaVuSans-6d" transform="translate(542.192383 0.78125)"/>
     <use xlink:href="#DejaVuSans-41" transform="translate(639.604492 0.78125)"/>
    </g>
    <!-- $\Delta B$ = 1.186 mT -->
    <g transform="translate(524.4984 78.535469) scale(0.11 -0.11)">
     <defs>
      <path id="DejaVuSans-394" d="M 2188 4044 
L 906 525 
L 3472 525 
L 2188 4044 
z
M 50 0 
L 1831 4666 
L 2547 4666 
L 4325 0 
L 50 0 
z
" transform="scale(0.015625)"/>
      <path id="DejaVuSans-38" d="M 2034 2216 
Q 1584 2216 1326 1975 
Q 1069 1734 1069 1313 
Q 1069 891 1326 650 
Q 1584 409 2034 409 
Q 2484 409 2743 651 
Q 3003 894 3003 1313 
Q 3003 1734 2745 1975 
Q 2488 2216 2034 2216 
z
M 1403 2484 
Q 997 2584 770 2862 
Q 544 3141 544 3541 
Q 544 4100 942 4425 
Q 1341 4750 2034 4750 
Q 2731 4750 3128 4425 
Q 3525 4100 3525 3541 
Q 3525 3141 3298 2862 
Q 3072 2584 2669 2484 
Q 3125 2378 3379 2068 
Q 3634 1759 3634 1313 
Q 3634 634 3220 271 
Q 2806 -91 2034 -91 
Q 1263 -91 848 271 
Q 434 634 434 1313 
Q 434 1759 690 2068 
Q 947 2378 1403 2484 
z
M 1172 3481 
Q 1172 3119 1398 2916 
Q 1625 2713 2034 2713 
Q 2441 2713 2670 2916 
Q 2900 3119 2900 3481 
Q 2900 3844 2670 4047 
Q 2441 4250 2034 4250 
Q 1625 4250 1398 4047 
Q 1172 3844 1172 3481 
z
" transform="scale(0.015625)"/>
     </defs>
     <use xlink:href="#DejaVuSans-394" transform="translate(0 0.78125)"/>
     <use xlink:href="#DejaVuSans-Oblique-42" transform="translate(68.408203 0.78125)"/>
     <use xlink:href="#DejaVuSans-20" transform="translate(137.011719 0.78125)"/>
     <use xlink:href="#DejaVuSans-3d" transform="translate(168.798828 0.78125)"/>
     <use xlink:href="#DejaVuSans-20" transform="translate(252.587891 0.78125)"/>
     <use xlink:href="#DejaVuSans-31" transform="translate(284.375 0.78125)"/>
     <use xlink:href="#DejaVuSans-2e" transform="translate(347.998047 0.78125)"/>
     <use xlink:href="#DejaVuSans-31" transform="translate(379.785156 0.78125)"/>
     <use xlink:href="#DejaVuSans-38" transform="translate(443.408203 0.78125)"/>
     <use xlink:href="#DejaVuSans-36" transform="translate(507.03125 0.78125)"/>
     <use xlink:href="#DejaVuSans-20" transform="translate(570.654297 0.78125)"/>
     <use xlink:href="#DejaVuSans-6d" transform="translate(602.441406 0.78125)"/>
     <use xlink:href="#DejaVuSans-54" transform="translate(699.853516 0.78125)"/>
    </g>
    <!-- $B_{offset}$ = -0.003 mT -->
    <g transform="translate(505.7984 90.853063) scale(0.11 -0.11)">
     <defs>
      <path id="DejaVuSans-Oblique-6f" d="M 1625 -91 
Q 1009 -91 651 289 
Q 294 669 294 1325 
Q 294 1706 417 2101 
Q 541 2497 738 2766 
Q 1047 3184 1428 3384 
Q 1809 3584 2291 3584 
Q 2888 3584 3255 3212 
Q 3622 2841 3622 2241 
Q 3622 1825 3500 1412 
Q 3378 1000 3181 728 
Q 2875 309 2494 109 
Q 2113 -91 1625 -91 
z
M 891 1344 
Q 891 869 1089 633 
Q 1288 397 1691 397 
Q 2269 397 2648 901 
Q 3028 1406 3028 2181 
Q 3028 2634 2825 2865 
Q 2622 3097 2228 3097 
Q 1903 3097 1650 2945 
Q 1397 2794 1197 2484 
Q 1050 2253 970 1956 
Q 891 1659 891 1344 
z
" transform="scale(0.015625)"/>
      <path id="DejaVuSans-Oblique-66" d="M 3059 4863 
L 2969 4384 
L 2419 4384 
Q 2106 4384 1964 4261 
Q 1822 4138 1753 3809 
L 1691 3500 
L 2638 3500 
L 2553 3053 
L 1606 3053 
L 1013 0 
L 434 0 
L 1031 3053 
L 481 3053 
L 563 3500 
L 1113 3500 
L 1159 3744 
Q 1278 4363 1576 4613 
Q 1875 4863 2516 4863 
L 3059 4863 
z
" transform="scale(0.015625)"/>
      <path id="DejaVuSans-Oblique-73" d="M 3200 3397 
L 3091 2853 
Q 2863 2978 2609 3040 
Q 2356 3103 2088 3103 
Q 1634 3103 1373 2948 
Q 1113 2794 1113 2528 
Q 1113 2219 1719 2053 
Q 1766 2041 1788 2034 
L 1972 1978 
Q 2547 1819 2739 1644 
Q 2931 1469 2931 1166 
Q 2931 609 2489 259 
Q 2047 -91 1331 -91 
Q 1053 -91 747 -37 
Q 441 16 72 128 
L 184 722 
Q 500 559 806 475 
Q 1113 391 1394 391 
Q 1816 391 2080 572 
Q 2344 753 2344 1031 
Q 2344 1331 1650 1516 
L 1591 1531 
L 1394 1581 
Q 956 1697 753 1886 
Q 550 2075 550 2369 
Q 550 2928 970 3256 
Q 1391 3584 2113 3584 
Q 2397 3584 2667 3537 
Q 2938 3491 3200 3397 
z
" transform="scale(0.015625)"/>
      <path id="DejaVuSans-Oblique-65" d="M 3078 2063 
Q 3088 2113 3092 2166 
Q 3097 2219 3097 2272 
Q 3097 2653 2873 2875 
Q 2650 3097 2266 3097 
Q 1838 3097 1509 2826 
Q 1181 2556 1013 2059 
L 3078 2063 
z
M 3578 1613 
L 903 1613 
Q 884 1494 878 1425 
Q 872 1356 872 1306 
Q 872 872 1139 634 
Q 1406 397 1894 397 
Q 2269 397 2603 481 
Q 2938 566 3225 728 
L 3116 159 
Q 2806 34 2476 -28 
Q 2147 -91 1806 -91 
Q 1078 -91 686 257 
Q 294 606 294 1247 
Q 294 1794 489 2264 
Q 684 2734 1063 3103 
Q 1306 3334 1642 3459 
Q 1978 3584 2356 3584 
Q 2950 3584 3301 3228 
Q 3653 2872 3653 2272 
Q 3653 2128 3634 1964 
Q 3616 1800 3578 1613 
z
" transform="scale(0.015625)"/>
      <path id="DejaVuSans-Oblique-74" d="M 2706 3500 
L 2619 3053 
L 1472 3053 
L 1100 1153 
Q 1081 1047 1072 975 
Q 1063 903 1063 863 
Q 1063 663 1183 572 
Q 1303 481 1569 481 
L 2150 481 
L 2053 0 
L 1503 0 
Q 991 0 739 200 
Q 488 400 488 806 
Q 488 878 497 964 
Q 506 1050 525 1153 
L 897 3053 
L 409 3053 
L 500 3500 
L 978 3500 
L 1172 4494 
L 1747 4494 
L 1556 3500 
L 2706 3500 
z
" transform="scale(0.015625)"/>
      <path id="DejaVuSans-2d" d="M 313 2009 
L 1997 2009 
L 1997 1497 
L 313 1497 
L 313 2009 
z
" transform="scale(0.015625)"/>
     </defs>
     <use xlink:href="#DejaVuSans-Oblique-42" transform="translate(0 0.78125)"/>
     <use xlink:href="#DejaVuSans-Oblique-6f" transform="translate(68.603516 -15.625) scale(0.7)"/>
     <use xlink:href="#DejaVuSans-Oblique-66" transform="translate(111.430664 -15.625) scale(0.7)"/>
     <use xlink:href="#DejaVuSans-Oblique-66" transform="translate(136.074219 -15.625) scale(0.7)"/>
     <use xlink:href="#DejaVuSans-Oblique-73" transform="translate(160.717773 -15.625) scale(0.7)"/>
     <use xlink:href="#DejaVuSans-Oblique-65" transform="translate(197.1875 -15.625) scale(0.7)"/>
     <use xlink:href="#DejaVuSans-Oblique-74" transform="translate(240.253906 -15.625) scale(0.7)"/>
     <use xlink:href="#DejaVuSans-20" transform="translate(270.43457 0.78125)"/>
     <use xlink:href="#DejaVuSans-3d" transform="translate(302.22168 0.78125)"/>
     <use xlink:href="#DejaVuSans-20" transform="translate(386.010742 0.78125)"/>
     <use xlink:href="#DejaVuSans-2d" transform="translate(417.797852 0.78125)"/>
     <use xlink:href="#DejaVuSans-30" transform="translate(453.881836 0.78125)"/>
     <use xlink:href="#DejaVuSans-2e" transform="translate(517.504883 0.78125)"/>
     <use xlink:href="#DejaVuSans-30" transform="translate(549.291992 0.78125)"/>
     <use xlink:href="#DejaVuSans-30" transform="translate(612.915039 0.78125)"/>
     <use xlink:href="#DejaVuSans-33" transform="translate(676.538086 0.78125)"/>
     <use xlink:href="#DejaVuSans-20" transform="translate(740.161133 0.78125)"/>
     <use xlink:href="#DejaVuSans-6d" transform="translate(771.948242 0.78125)"/>
     <use xlink:href="#DejaVuSans-54" transform="translate(869.360352 0.78125)"/>
    </g>
   </g>
   <g id="text_17">
    <!-- Magnetic Field Dependence of Critical Current -->
    <g transform="translate(186.201969 21.6) scale(0.14 -0.14)">
     <defs>
      <path id="DejaVuSans-44" d="M 1259 4147 
L 1259 519 
L 2022 519 
Q 2988 519 3436 956 
Q 3884 1394 3884 2338 
Q 3884 3275 3436 3711 
Q 2988 4147 2022 4147 
L 1259 4147 
z
M 628 4666 
L 1925 4666 
Q 3281 4666 3915 4102 
Q 4550 3538 4550 2338 
Q 4550 1131 3912 565 
Q 3275 0 1925 0 
L 628 0 
L 628 4666 
z
" transform="scale(0.015625)"/>
      <path id="DejaVuSans-70" d="M 1159 525 
L 1159 -1331 
L 581 -1331 
L 581 3500 
L 1159 3500 
L 1159 2969 
Q 1341 3281 1617 3432 
Q 1894 3584 2278 3584 
Q 2916 3584 3314 3078 
Q 3713 2572 3713 1747 
Q 3713 922 3314 415 
Q 2916 -91 2278 -91 
Q 1894 -91 1617 61 
Q 1341 213 1159 525 
z
M 3116 1747 
Q 3116 2381 2855 2742 
Q 2594 3103 2138 3103 
Q 1681 3103 1420 2742 
Q 1159 2381 1159 1747 
Q 1159 1113 1420 752 
Q 1681 391 2138 391 
Q 2594 391 2855 752 
Q 3116 1113 3116 1747 
z
" transform="scale(0.015625)"/>
      <path id="DejaVuSans-6f" d="M 1959 3097 
Q 1497 3097 1228 2736 
Q 959 2375 959 1747 
Q 959 1119 1226 758 
Q 1494 397 1959 397 
Q 2419 397 2687 759 
Q 2956 1122 2956 1747 
Q 2956 2369 2687 2733 
Q 2419 3097 1959 3097 
z
M 1959 3584 
Q 2709 3584 3137 3096 
Q 3566 2609 3566 1747 
Q 3566 888 3137 398 
Q 2709 -91 1959 -91 
Q 1206 -91 779 398 
Q 353 888 353 1747 
Q 353 2609 779 3096 
Q 1206 3584 1959 3584 
z
" transform="scale(0.015625)"/>
      <path id="DejaVuSans-66" d="M 2375 4863 
L 2375 4384 
L 1825 4384 
Q 1516 4384 1395 4259 
Q 1275 4134 1275 3809 
L 1275 3500 
L 2222 3500 
L 2222 3053 
L 1275 3053 
L 1275 0 
L 697 0 
L 697 3053 
L 147 3053 
L 147 3500 
L 697 3500 
L 697 3744 
Q 697 4328 969 4595 
Q 1241 4863 1831 4863 
L 2375 4863 
z
" transform="scale(0.015625)"/>
     </defs>
     <use xlink:href="#DejaVuSans-4d"/>
     <use xlink:href="#DejaVuSans-61" x="86.279297"/>
     <use xlink:href="#DejaVuSans-67" x="147.558594"/>
     <use xlink:href="#DejaVuSans-6e" x="211.035156"/>
     <use xlink:href="#DejaVuSans-65" x="274.414062"/>
     <use xlink:href="#DejaVuSans-74" x="335.9375"/>
     <use xlink:href="#DejaVuSans-69" x="375.146484"/>
     <use xlink:href="#DejaVuSans-63" x="402.929688"/>
     <use xlink:href="#DejaVuSans-20" x="457.910156"/>
     <use xlink:href="#DejaVuSans-46" x="489.697266"/>
     <use xlink:href="#DejaVuSans-69" x="539.966797"/>
     <use xlink:href="#DejaVuSans-65" x="567.75"/>
     <use xlink:href="#DejaVuSans-6c" x="629.273438"/>
     <use xlink:href="#DejaVuSans-64" x="657.056641"/>
     <use xlink:href="#DejaVuSans-20" x="720.533203"/>
     <use xlink:href="#DejaVuSans-44" x="752.320312"/>
     <use xlink:href="#DejaVuSans-65" x="829.322266"/>
     <use xlink:href="#DejaVuSans-70" x="890.845703"/>
     <use xlink:href="#DejaVuSans-65" x="954.322266"/>
     <use xlink:href="#DejaVuSans-6e" x="1015.845703"/>
     <use xlink:href="#DejaVuSans-64" x="1079.224609"/>
     <use xlink:href="#DejaVuSans-65" x="1142.701172"/>
     <use xlink:href="#DejaVuSans-6e" x="1204.224609"/>
     <use xlink:href="#DejaVuSans-63" x="1267.603516"/>
     <use xlink:href="#DejaVuSans-65" x="1322.583984"/>
     <use xlink:href="#DejaVuSans-20" x="1384.107422"/>
     <use xlink:href="#DejaVuSans-6f" x="1415.894531"/>
     <use xlink:href="#DejaVuSans-66" x="1477.076172"/>
     <use xlink:href="#DejaVuSans-20" x="1512.28125"/>
     <use xlink:href="#DejaVuSans-43" x="1544.068359"/>
     <use xlink:href="#DejaVuSans-72" x="1613.892578"/>
     <use xlink:href="#DejaVuSans-69" x="1655.005859"/>
     <use xlink:href="#DejaVuSans-74" x="1682.789062"/>
     <use xlink:href="#DejaVuSans-69" x="1721.998047"/>
     <use xlink:href="#DejaVuSans-63" x="1749.78125"/>
     <use xlink:href="#DejaVuSans-61" x="1804.761719"/>
     <use xlink:href="#DejaVuSans-6c" x="1866.041016"/>
     <use xlink:href="#DejaVuSans-20" x="1893.824219"/>
     <use xlink:href="#DejaVuSans-43" x="1925.611328"/>
     <use xlink:href="#DejaVuSans-75" x="1995.435547"/>
     <use xlink:href="#DejaVuSans-72" x="2058.814453"/>
     <use xlink:href="#DejaVuSans-72" x="2098.177734"/>
     <use xlink:href="#DejaVuSans-65" x="2137.041016"/>
     <use xlink:href="#DejaVuSans-6e" x="2198.564453"/>
     <use xlink:href="#DejaVuSans-74" x="2261.943359"/>
    </g>
   </g>
   <g id="legend_1">
    <g id="patch_8">
     <path d="M 529.115625 64.95625 
L 630.2 64.95625 
Q 632.2 64.95625 632.2 62.95625 
L 632.2 34.6 
Q 632.2 32.6 630.2 32.6 
L 529.115625 32.6 
Q 527.115625 32.6 527.115625 34.6 
L 527.115625 62.95625 
Q 527.115625 64.95625 529.115625 64.95625 
z
" style="fill: #ffffff; opacity: 0.8; stroke: #cccccc; stroke-linejoin: miter"/>
    </g>
    <g id="PathCollection_2">
     <g>
      <use xlink:href="#me18490c7c8" x="541.115625" y="41.573438" style="fill: #ff0000; stroke: #ff0000"/>
     </g>
    </g>
    <g id="text_18">
     <!-- Extracted $I_c$ -->
     <g transform="translate(559.115625 44.198438) scale(0.1 -0.1)">
      <defs>
       <path id="DejaVuSans-45" d="M 628 4666 
L 3578 4666 
L 3578 4134 
L 1259 4134 
L 1259 2753 
L 3481 2753 
L 3481 2222 
L 1259 2222 
L 1259 531 
L 3634 531 
L 3634 0 
L 628 0 
L 628 4666 
z
" transform="scale(0.015625)"/>
       <path id="DejaVuSans-78" d="M 3513 3500 
L 2247 1797 
L 3578 0 
L 2900 0 
L 1881 1375 
L 863 0 
L 184 0 
L 1544 1831 
L 300 3500 
L 978 3500 
L 1906 2253 
L 2834 3500 
L 3513 3500 
z
" transform="scale(0.015625)"/>
      </defs>
      <use xlink:href="#DejaVuSans-45" transform="translate(0 0.015625)"/>
      <use xlink:href="#DejaVuSans-78" transform="translate(63.183594 0.015625)"/>
      <use xlink:href="#DejaVuSans-74" transform="translate(122.363281 0.015625)"/>
      <use xlink:href="#DejaVuSans-72" transform="translate(161.572266 0.015625)"/>
      <use xlink:href="#DejaVuSans-61" transform="translate(202.685547 0.015625)"/>
      <use xlink:href="#DejaVuSans-63" transform="translate(263.964844 0.015625)"/>
      <use xlink:href="#DejaVuSans-74" transform="translate(318.945312 0.015625)"/>
      <use xlink:href="#DejaVuSans-65" transform="translate(358.154297 0.015625)"/>
      <use xlink:href="#DejaVuSans-64" transform="translate(419.677734 0.015625)"/>
      <use xlink:href="#DejaVuSans-20" transform="translate(483.154297 0.015625)"/>
      <use xlink:href="#DejaVuSans-Oblique-49" transform="translate(514.941406 0.015625)"/>
      <use xlink:href="#DejaVuSans-Oblique-63" transform="translate(544.433594 -16.390625) scale(0.7)"/>
     </g>
    </g>
    <g id="line2d_28">
     <path d="M 531.115625 55.376563 
L 541.115625 55.376563 
L 551.115625 55.376563 
" style="fill: none; stroke: #0000ff; stroke-width: 2; stroke-linecap: square"/>
    </g>
    <g id="text_19">
     <!-- Fraunhofer Fit -->
     <g transform="translate(559.115625 58.876563) scale(0.1 -0.1)">
      <defs>
       <path id="DejaVuSans-68" d="M 3513 2113 
L 3513 0 
L 2938 0 
L 2938 2094 
Q 2938 2591 2744 2837 
Q 2550 3084 2163 3084 
Q 1697 3084 1428 2787 
Q 1159 2491 1159 1978 
L 1159 0 
L 581 0 
L 581 4863 
L 1159 4863 
L 1159 2956 
Q 1366 3272 1645 3428 
Q 1925 3584 2291 3584 
Q 2894 3584 3203 3211 
Q 3513 2838 3513 2113 
z
" transform="scale(0.015625)"/>
      </defs>
      <use xlink:href="#DejaVuSans-46"/>
      <use xlink:href="#DejaVuSans-72" x="50.269531"/>
      <use xlink:href="#DejaVuSans-61" x="91.382812"/>
      <use xlink:href="#DejaVuSans-75" x="152.662109"/>
      <use xlink:href="#DejaVuSans-6e" x="216.041016"/>
      <use xlink:href="#DejaVuSans-68" x="279.419922"/>
      <use xlink:href="#DejaVuSans-6f" x="342.798828"/>
      <use xlink:href="#DejaVuSans-66" x="403.980469"/>
      <use xlink:href="#DejaVuSans-65" x="439.185547"/>
      <use xlink:href="#DejaVuSans-72" x="500.708984"/>
      <use xlink:href="#DejaVuSans-20" x="541.822266"/>
      <use xlink:href="#DejaVuSans-46" x="573.609375"/>
      <use xlink:href="#DejaVuSans-69" x="623.878906"/>
      <use xlink:href="#DejaVuSans-74" x="651.662109"/>
     </g>
    </g>
   </g>
  </g>
 </g>
 <defs>
  <clipPath id="pdc895ae071">
   <rect x="57.368" y="27.6" width="579.832" height="358.84"/>
  </clipPath>
 </defs>
</svg>
